<svg width="328" height="272" viewBox="0 0 328 272" fill="none" xmlns="http://www.w3.org/2000/svg">
<path d="M0 26.101C0 11.8271 11.8743 0.242432 26.5051 0.242432H301.495C316.126 0.242432 328 11.8271 328 26.101C328 40.375 316.126 51.9596 301.495 51.9596H26.5051C11.8743 51.9596 0 40.375 0 26.101ZM301.495 110.141H26.5051C11.8743 110.141 0 121.726 0 136C0 150.274 11.8743 161.859 26.5051 161.859H301.495C316.126 161.859 328 150.274 328 136C328 121.726 316.139 110.141 301.495 110.141ZM301.495 220.04H26.5051C11.8743 220.04 0 231.625 0 245.899C0 260.173 11.8743 271.758 26.5051 271.758H301.495C316.126 271.758 328 260.173 328 245.899C328 231.625 316.139 220.04 301.495 220.04Z" fill="#CD3C3C"/>
</svg>
